<svg xmlns="http://www.w3.org/2000/svg" xmlns:xlink="http://www.w3.org/1999/xlink" width="33.757" height="32" viewBox="0 0 33.757 32"><defs><style>.a{fill:url(#a);}</style><linearGradient id="a" x1="-0.001" y1="0.499" x2="1.001" y2="0.499" gradientUnits="objectBoundingBox"><stop offset="0.26" stop-color="#1487cf"/><stop offset="1" stop-color="#ffd83a"/></linearGradient></defs><path class="a" d="M19.145,32a10.394,10.394,0,0,1-1.783-.188c-3.941-.751-9.478-2.534-13.326-7.226A19.984,19.984,0,0,1,.1,10.51v-.094c.188-2.44.375-6.1,4.129-6.757L4.6,3.566c1.783-.282,4.974-.845,5.818,1.971a43.779,43.779,0,0,1,1.126,4.411,3.43,3.43,0,0,1-.657,2.721,5.947,5.947,0,0,1-3.472,1.971,14.519,14.519,0,0,0,6.757,8.821,5.863,5.863,0,0,1,2.721-2.721,3.094,3.094,0,0,1,2.721.094h0A22.507,22.507,0,0,1,22.805,22.9a4.153,4.153,0,0,1,2.158,2.909,6.4,6.4,0,0,1-1.126,4.317C22.9,31.437,20.928,32,19.145,32ZM6.946,5.255c-.563,0-1.22.094-2.065.188l-.375.094C2.442,5.818,2.16,7.7,1.972,10.51V10.6c-.188,3.472.188,8.633,3.566,12.762,3.378,4.223,8.446,5.912,12.106,6.569,1.689.282,3.848.094,4.6-.938a4.66,4.66,0,0,0,.845-2.909c-.094-.563-.469-.938-1.314-1.5l-.094-.094a30.359,30.359,0,0,0-2.815-1.877h0a1.388,1.388,0,0,0-1.22,0,5.081,5.081,0,0,0-2.158,2.628.846.846,0,0,1-.563.563,1.028,1.028,0,0,1-.751,0A16.562,16.562,0,0,1,5.257,14.17a.73.73,0,0,1,.188-.751.95.95,0,0,1,.657-.375c1.5-.188,2.721-.657,3.191-1.408a1.552,1.552,0,0,0,.282-1.314A33,33,0,0,0,8.541,6.194C8.447,5.443,7.884,5.255,6.946,5.255Zm10.886,11.73a1.74,1.74,0,0,1-.657-.188,1.088,1.088,0,0,1-.375-.938l.751-3.754a12.541,12.541,0,0,1-.657-3.66,8.446,8.446,0,1,1,8.446,8.446,7.927,7.927,0,0,1-4.317-1.22L18.207,16.8A.488.488,0,0,1,17.832,16.985ZM21.116,13.7a1.334,1.334,0,0,1,.563.188,6.469,6.469,0,0,0,3.66,1.126A6.569,6.569,0,1,0,18.77,8.446a6.771,6.771,0,0,0,.751,3,1.391,1.391,0,0,1,.094.657l-.469,2.346,1.6-.657A.709.709,0,0,1,21.116,13.7Z" transform="translate(-0.028)"/></svg>