<svg xmlns="http://www.w3.org/2000/svg" xmlns:xlink="http://www.w3.org/1999/xlink" width="125" height="40" viewBox="0 0 125 40"><defs><style>.a{fill:url(#a);}.b{fill:#fff;}.c{fill:#1487cf;}.d{fill:url(#b);}.e{fill:url(#c);}</style><linearGradient id="a" x1="1" y1="1" x2="0" y2="1" gradientUnits="objectBoundingBox"><stop offset="0" stop-color="#1487cf"/><stop offset="0.293" stop-color="#1487cf"/><stop offset="1" stop-color="#ffd83a"/></linearGradient><linearGradient id="b" x1="-0.042" y1="0.505" x2="2.121" y2="0.505" xlink:href="#a"/><linearGradient id="c" x1="-1.018" y1="0.5" x2="0.763" y2="0.5" xlink:href="#a"/></defs><g transform="translate(-360 -72)"><rect class="a" width="125" height="40" rx="9" transform="translate(360 72)"/><rect class="b" width="123" height="38" rx="8" transform="translate(361 73)"/><path class="c" d="M13.8,27.5H12.1a.43.43,0,0,1-.4-.4V19.9a.43.43,0,0,1,.4-.4h4.4a2.174,2.174,0,0,0,2.2-1.9,2.1,2.1,0,0,0-2.1-2.3H12a.43.43,0,0,1-.4-.4V13.2a.43.43,0,0,1,.4-.4h4.4A4.776,4.776,0,0,1,21.2,17a4.6,4.6,0,0,1-4.6,5.1h-2a.43.43,0,0,0-.4.4v4.7C14.3,27.3,14.1,27.5,13.8,27.5Z" transform="translate(360 72)"/><path class="c" d="M31.6,27.5A7.4,7.4,0,1,1,39,20.1,7.383,7.383,0,0,1,31.6,27.5Zm0-12.3a4.9,4.9,0,1,0,4.9,4.9A4.908,4.908,0,0,0,31.6,15.2Z" transform="translate(360 72)"/><path class="c" d="M51.1,27.5h-8a.43.43,0,0,1-.4-.4V13.2a.43.43,0,0,1,.4-.4h1.7a.43.43,0,0,1,.4.4V24.6a.43.43,0,0,0,.4.4h5.5a.43.43,0,0,1,.4.4v1.7A.366.366,0,0,1,51.1,27.5Z" transform="translate(360 72)"/><path class="c" d="M58.1,27.5H56.4a.43.43,0,0,1-.4-.4V13.2a.43.43,0,0,1,.4-.4h1.7a.43.43,0,0,1,.4.4V27.1A.43.43,0,0,1,58.1,27.5Z" transform="translate(360 72)"/><path class="c" d="M72.4,15.8c-.1.2-.4.2-.6.1a5.583,5.583,0,0,0-4-.7c-1.2.3-2.5,1.3-1.5,2.5.6.8,2.2,1,3.1,1.4,1.2.5,2.6,1,3.3,2.1,1.7,2.4-.1,5.5-2.8,6.1a9.611,9.611,0,0,1-7-1.5c-.2-.1-.2-.4-.1-.6l.6-.9a.758.758,0,0,1,.4-.2c1.5.3,8.4,1.7,7-1.2-.5-1.3-3.6-1.8-4.7-2.3-2-.9-3.3-3-2.3-5.2,1.6-3.4,6.5-3,9.2-1.2.2.1.2.4.1.6Z" transform="translate(360 72)"/><path class="d" d="M96.4,12.7H94.7a.43.43,0,0,0-.4.4v9.1A2.85,2.85,0,0,1,90.8,25a3,3,0,0,1-2.3-2.9v-9a.43.43,0,0,0-.4-.4H86.4a.43.43,0,0,0-.4.4V22a5.507,5.507,0,0,0,4.7,5.5,5.374,5.374,0,0,0,6.1-5.3V13.1A.366.366,0,0,0,96.4,12.7Z" transform="translate(360 72)"/><path class="e" d="M112,27l-4-14.1c-.1-.2-.2-.3-.4-.3h-4.2c-.2,0-.3.1-.4.3L98.9,27.5h2.3c.2,0,.3-.1.4-.3l1.2-4.2c.1-.2.2-.3.4-.3h4.7c.2,0,.3.1.4.3l1.2,4.2c.1.2.2.3.4.3h1.7C111.9,27.5,112.1,27.2,112,27Zm-5-6.8h-2.8c-.3,0-.5-.3-.4-.5l1.2-4.2c.1-.2.2-.3.4-.3h.5c.2,0,.4.1.4.3l1.2,4.2C107.4,19.9,107.2,20.2,107,20.2Z" transform="translate(360 72)"/></g></svg>