<svg xmlns="http://www.w3.org/2000/svg" xmlns:xlink="http://www.w3.org/1999/xlink" width="125" height="40" viewBox="0 0 125 40"><defs><style>.a{fill:#fff;}.b{fill:url(#a);}.c{fill:#1487cf;}.d{fill:url(#b);}.e{fill:url(#c);}</style><linearGradient id="a" y1="20" x2="125" y2="20" gradientUnits="userSpaceOnUse"><stop offset="0" stop-color="#ffd83a"/><stop offset="0.74" stop-color="#1487cf"/><stop offset="1" stop-color="#1487cf"/></linearGradient><linearGradient id="b" x1="85.542" y1="20.291" x2="108.908" y2="20.291" gradientUnits="userSpaceOnUse"><stop offset="0" stop-color="#1487cf"/><stop offset="1" stop-color="#ffd83a"/></linearGradient><linearGradient id="c" x1="85.542" y1="20.148" x2="108.908" y2="20.148" xlink:href="#b"/></defs><title>polis-ua-gradient-YB</title><rect class="a" width="125" height="40" rx="8" ry="8"/><path class="b" d="M117,1a7.008,7.008,0,0,1,7,7V32a7.008,7.008,0,0,1-7,7H8a7.008,7.008,0,0,1-7-7V8A7.008,7.008,0,0,1,8,1H117m0-1H8A8,8,0,0,0,0,8V32a8,8,0,0,0,8,8H117a8,8,0,0,0,8-8V8a8,8,0,0,0-8-8Z"/><path class="c" d="M13.84,27.595H12.173a.417.417,0,0,1-.417-.417V20a.417.417,0,0,1,.417-.417h4.368a2.2,2.2,0,0,0,2.231-1.9,2.12,2.12,0,0,0-2.106-2.339H12.051a.417.417,0,0,1-.417-.417V13.263a.417.417,0,0,1,.417-.417h4.41A4.757,4.757,0,0,1,21.261,17a4.623,4.623,0,0,1-4.595,5.079H14.673a.417.417,0,0,0-.417.417v4.68A.417.417,0,0,1,13.84,27.595Z"/><path class="c" d="M31.632,27.595a7.417,7.417,0,1,1,7.416-7.417A7.426,7.426,0,0,1,31.632,27.595Zm0-12.334a4.917,4.917,0,1,0,4.916,4.917A4.922,4.922,0,0,0,31.632,15.261Z"/><path class="c" d="M51.131,27.595H43.146a.417.417,0,0,1-.417-.417V13.254a.417.417,0,0,1,.417-.417h1.667a.417.417,0,0,1,.417.417V24.678a.417.417,0,0,0,.417.417h5.485a.417.417,0,0,1,.417.417v1.667A.417.417,0,0,1,51.131,27.595Z"/><rect class="c" x="55.979" y="12.837" width="2.5" height="14.757" rx="0.417" ry="0.417"/><path class="c" d="M72.426,15.935a.42.42,0,0,1-.554.106,5.839,5.839,0,0,0-3.967-.682c-1.193.268-2.46,1.267-1.487,2.5.615.782,2.18,1,3.053,1.362A7.327,7.327,0,0,1,72.812,21.3c1.737,2.4-.136,5.535-2.8,6.1a10.2,10.2,0,0,1-7.049-1.485.414.414,0,0,1-.1-.583l.645-.908a.409.409,0,0,1,.426-.166c1.5.339,8.406,1.728,6.99-1.243-.484-1.294-3.569-1.809-4.687-2.331-1.982-.926-3.326-3.036-2.312-5.2,1.594-3.4,6.492-2.954,9.195-1.228a.414.414,0,0,1,.1.593Z"/><path class="d" d="M96.427,12.837H94.76a.417.417,0,0,0-.417.417V22.37a2.883,2.883,0,0,1-3.478,2.815,2.921,2.921,0,0,1-2.277-2.89V13.254a.417.417,0,0,0-.417-.417H86.505a.417.417,0,0,0-.417.417v8.923a5.507,5.507,0,0,0,4.67,5.523,5.382,5.382,0,0,0,6.086-5.329V13.254A.417.417,0,0,0,96.427,12.837Z"/><path class="e" d="M112.024,27.064l-3.988-14.058a.417.417,0,0,0-.4-.3h-4.178a.417.417,0,0,0-.4.3L98.917,27.594h2.277a.417.417,0,0,0,.4-.3l1.2-4.212a.417.417,0,0,1,.4-.3H107.9a.417.417,0,0,1,.4.3l1.2,4.212a.417.417,0,0,0,.4.3h1.725A.417.417,0,0,0,112.024,27.064Zm-5.069-6.788h-2.819a.417.417,0,0,1-.4-.528l1.18-4.24a.417.417,0,0,1,.4-.3h.459a.416.416,0,0,1,.4.3l1.18,4.24A.417.417,0,0,1,106.955,20.276Z"/></svg>